<?xml version="1.0" encoding="utf-8"?>
<!-- Generator: Adobe Illustrator 26.1.0, SVG Export Plug-In . SVG Version: 6.00 Build 0)  -->
<svg version="1.1" id="Слой_1" xmlns="http://www.w3.org/2000/svg" xmlns:xlink="http://www.w3.org/1999/xlink" x="0px" y="0px"
	 viewBox="0 0 1290 739" style="enable-background:new 0 0 1290 739;" xml:space="preserve">
<style type="text/css">
	.st0{fill:none;stroke:#000000;stroke-linecap:round;stroke-linejoin:round;}
</style>
<g>
	<line class="st0" x1="1156.3" y1="39.6" x2="1156.3" y2="23.3"/>
	<line class="st0" x1="1173.8" y1="39.6" x2="1173.8" y2="23.3"/>
	<line class="st0" x1="1191.2" y1="39.6" x2="1191.2" y2="23.3"/>
	<path class="st0" d="M1141.8,31.5h64c3.2,0,5.8,2.4,5.8,5.4v51.6c0,3-2.6,5.4-5.8,5.4h-64c-3.2,0-5.8-2.4-5.8-5.4V36.9
		C1136,33.9,1138.6,31.5,1141.8,31.5z"/>
	<line class="st0" x1="1153.4" y1="58.6" x2="1194.1" y2="58.6"/>
	<line class="st0" x1="1153.4" y1="74.9" x2="1176.7" y2="74.9"/>
</g>
<g>
	<line class="st0" x1="969.7" y1="39.6" x2="969.7" y2="23.3"/>
	<line class="st0" x1="987.1" y1="39.6" x2="987.1" y2="23.3"/>
	<line class="st0" x1="1004.6" y1="39.6" x2="1004.6" y2="23.3"/>
	<path class="st0" d="M955.1,31.5h64c3.2,0,5.8,2.4,5.8,5.4v51.6c0,3-2.6,5.4-5.8,5.4h-64c-3.2,0-5.8-2.4-5.8-5.4V36.9
		C949.3,33.9,951.9,31.5,955.1,31.5z"/>
	<line class="st0" x1="966.8" y1="58.6" x2="1007.5" y2="58.6"/>
	<line class="st0" x1="966.8" y1="74.9" x2="990" y2="74.9"/>
</g>
<g>
	<line class="st0" x1="783" y1="39.6" x2="783" y2="23.3"/>
	<line class="st0" x1="800.5" y1="39.6" x2="800.5" y2="23.3"/>
	<line class="st0" x1="817.9" y1="39.6" x2="817.9" y2="23.3"/>
	<path class="st0" d="M768.5,31.5h64c3.2,0,5.8,2.4,5.8,5.4v51.6c0,3-2.6,5.4-5.8,5.4h-64c-3.2,0-5.8-2.4-5.8-5.4V36.9
		C762.7,33.9,765.3,31.5,768.5,31.5z"/>
	<line class="st0" x1="780.1" y1="58.6" x2="820.8" y2="58.6"/>
	<line class="st0" x1="780.1" y1="74.9" x2="803.4" y2="74.9"/>
</g>
<g>
	<line class="st0" x1="596.4" y1="39.6" x2="596.4" y2="23.3"/>
	<line class="st0" x1="613.8" y1="39.6" x2="613.8" y2="23.3"/>
	<line class="st0" x1="631.3" y1="39.6" x2="631.3" y2="23.3"/>
	<path class="st0" d="M581.8,31.5h64c3.2,0,5.8,2.4,5.8,5.4v51.6c0,3-2.6,5.4-5.8,5.4h-64c-3.2,0-5.8-2.4-5.8-5.4V36.9
		C576,33.9,578.6,31.5,581.8,31.5z"/>
	<line class="st0" x1="593.5" y1="58.6" x2="634.2" y2="58.6"/>
	<line class="st0" x1="593.5" y1="74.9" x2="616.7" y2="74.9"/>
</g>
<g>
	<line class="st0" x1="409.7" y1="39.6" x2="409.7" y2="23.3"/>
	<line class="st0" x1="427.2" y1="39.6" x2="427.2" y2="23.3"/>
	<line class="st0" x1="444.6" y1="39.6" x2="444.6" y2="23.3"/>
	<path class="st0" d="M395.2,31.5h64c3.2,0,5.8,2.4,5.8,5.4v51.6c0,3-2.6,5.4-5.8,5.4h-64c-3.2,0-5.8-2.4-5.8-5.4V36.9
		C389.4,33.9,392,31.5,395.2,31.5z"/>
	<line class="st0" x1="406.8" y1="58.6" x2="447.5" y2="58.6"/>
	<line class="st0" x1="406.8" y1="74.9" x2="430.1" y2="74.9"/>
</g>
<g>
	<line class="st0" x1="223.1" y1="39.6" x2="223.1" y2="23.3"/>
	<line class="st0" x1="240.5" y1="39.6" x2="240.5" y2="23.3"/>
	<line class="st0" x1="258" y1="39.6" x2="258" y2="23.3"/>
	<path class="st0" d="M208.5,31.5h64c3.2,0,5.8,2.4,5.8,5.4v51.6c0,3-2.6,5.4-5.8,5.4h-64c-3.2,0-5.8-2.4-5.8-5.4V36.9
		C202.7,33.9,205.3,31.5,208.5,31.5z"/>
	<line class="st0" x1="220.2" y1="58.6" x2="260.9" y2="58.6"/>
	<line class="st0" x1="220.2" y1="74.9" x2="243.4" y2="74.9"/>
</g>
<g>
	<line class="st0" x1="36.4" y1="39.6" x2="36.4" y2="23.3"/>
	<line class="st0" x1="53.9" y1="39.6" x2="53.9" y2="23.3"/>
	<line class="st0" x1="71.3" y1="39.6" x2="71.3" y2="23.3"/>
	<path class="st0" d="M21.9,31.5h64c3.2,0,5.8,2.4,5.8,5.4v51.6c0,3-2.6,5.4-5.8,5.4h-64c-3.2,0-5.8-2.4-5.8-5.4V36.9
		C16.1,33.9,18.7,31.5,21.9,31.5z"/>
	<line class="st0" x1="33.5" y1="58.6" x2="74.2" y2="58.6"/>
	<line class="st0" x1="33.5" y1="74.9" x2="56.8" y2="74.9"/>
</g>
<g>
	<path class="st0" d="M1179.6,293.8h-37.8c-3.2,0-5.8-2.4-5.8-5.4v-59.7c0-3,2.6-5.4,5.8-5.4h43.6"/>
	<path class="st0" d="M1194.1,239.5l8.7-16.3l8.7,16.3v46.1c0,4.5-3.9,8.1-8.7,8.1s-8.7-3.6-8.7-8.1V239.5z"/>
	<line class="st0" x1="1194.1" y1="272.1" x2="1211.6" y2="272.1"/>
	<line class="st0" x1="1153.4" y1="223.2" x2="1153.4" y2="293.8"/>
	<line class="st0" x1="1168" y1="242.2" x2="1179.6" y2="242.2"/>
</g>
<g>
	<path class="st0" d="M992.9,293.8h-37.8c-3.2,0-5.8-2.4-5.8-5.4v-59.7c0-3,2.6-5.4,5.8-5.4h43.6"/>
	<path class="st0" d="M1007.5,239.5l8.7-16.3l8.7,16.3v46.1c0,4.5-3.9,8.1-8.7,8.1s-8.7-3.6-8.7-8.1V239.5z"/>
	<line class="st0" x1="1007.5" y1="272.1" x2="1024.9" y2="272.1"/>
	<line class="st0" x1="966.8" y1="223.2" x2="966.8" y2="293.8"/>
	<line class="st0" x1="981.3" y1="242.2" x2="992.9" y2="242.2"/>
</g>
<g>
	<path class="st0" d="M806.3,293.8h-37.8c-3.2,0-5.8-2.4-5.8-5.4v-59.7c0-3,2.6-5.4,5.8-5.4h43.6"/>
	<path class="st0" d="M820.8,239.5l8.7-16.3l8.7,16.3v46.1c0,4.5-3.9,8.1-8.7,8.1c-4.8,0-8.7-3.6-8.7-8.1V239.5z"/>
	<line class="st0" x1="820.8" y1="272.1" x2="838.3" y2="272.1"/>
	<line class="st0" x1="780.1" y1="223.2" x2="780.1" y2="293.8"/>
	<line class="st0" x1="794.7" y1="242.2" x2="806.3" y2="242.2"/>
</g>
<g>
	<path class="st0" d="M619.7,293.8h-37.8c-3.2,0-5.8-2.4-5.8-5.4v-59.7c0-3,2.6-5.4,5.8-5.4h43.6"/>
	<path class="st0" d="M634.2,239.5l8.7-16.3l8.7,16.3v46.1c0,4.5-3.9,8.1-8.7,8.1c-4.8,0-8.7-3.6-8.7-8.1V239.5z"/>
	<line class="st0" x1="634.2" y1="272.1" x2="651.6" y2="272.1"/>
	<line class="st0" x1="593.5" y1="223.2" x2="593.5" y2="293.8"/>
	<line class="st0" x1="608" y1="242.2" x2="619.7" y2="242.2"/>
</g>
<g>
	<path class="st0" d="M433,293.8h-37.8c-3.2,0-5.8-2.4-5.8-5.4v-59.7c0-3,2.6-5.4,5.8-5.4h43.6"/>
	<path class="st0" d="M447.5,239.5l8.7-16.3l8.7,16.3v46.1c0,4.5-3.9,8.1-8.7,8.1c-4.8,0-8.7-3.6-8.7-8.1V239.5z"/>
	<line class="st0" x1="447.5" y1="272.1" x2="465" y2="272.1"/>
	<line class="st0" x1="406.8" y1="223.2" x2="406.8" y2="293.8"/>
	<line class="st0" x1="421.4" y1="242.2" x2="433" y2="242.2"/>
</g>
<g>
	<path class="st0" d="M246.4,293.8h-37.8c-3.2,0-5.8-2.4-5.8-5.4v-59.7c0-3,2.6-5.4,5.8-5.4h43.6"/>
	<path class="st0" d="M260.9,239.5l8.7-16.3l8.7,16.3v46.1c0,4.5-3.9,8.1-8.7,8.1s-8.7-3.6-8.7-8.1V239.5z"/>
	<line class="st0" x1="260.9" y1="272.1" x2="278.3" y2="272.1"/>
	<line class="st0" x1="220.2" y1="223.2" x2="220.2" y2="293.8"/>
	<line class="st0" x1="234.7" y1="242.2" x2="246.4" y2="242.2"/>
</g>
<g>
	<path class="st0" d="M59.7,293.8H21.9c-3.2,0-5.8-2.4-5.8-5.4v-59.7c0-3,2.6-5.4,5.8-5.4h43.6"/>
	<path class="st0" d="M74.2,239.5l8.7-16.3l8.7,16.3v46.1c0,4.5-3.9,8.1-8.7,8.1c-4.8,0-8.7-3.6-8.7-8.1V239.5z"/>
	<line class="st0" x1="74.2" y1="272.1" x2="91.7" y2="272.1"/>
	<line class="st0" x1="33.5" y1="223.2" x2="33.5" y2="293.8"/>
	<line class="st0" x1="48.1" y1="242.2" x2="59.7" y2="242.2"/>
</g>
<g>
	<ellipse class="st0" cx="1163" cy="180.2" rx="14.5" ry="13.6"/>
	<path class="st0" d="M1177.5,180.2v-57l0,0c17.7,0,32,13.4,32,29.9l0,0"/>
</g>
<g>
	<ellipse class="st0" cx="974.3" cy="180.2" rx="14.5" ry="13.6"/>
	<path class="st0" d="M988.8,180.2v-57l0,0c17.7,0,32,13.4,32,29.9l0,0"/>
</g>
<g>
	<ellipse class="st0" cx="785.5" cy="180.2" rx="14.5" ry="13.6"/>
	<path class="st0" d="M800.1,180.2v-57l0,0c17.7,0,32,13.4,32,29.9l0,0"/>
</g>
<g>
	<ellipse class="st0" cx="596.8" cy="180.2" rx="14.5" ry="13.6"/>
	<path class="st0" d="M611.3,180.2v-57l0,0c17.7,0,32,13.4,32,29.9l0,0"/>
</g>
<g>
	<ellipse class="st0" cx="408.1" cy="180.2" rx="14.5" ry="13.6"/>
	<path class="st0" d="M422.6,180.2v-57l0,0c17.7,0,32,13.4,32,29.9l0,0"/>
</g>
<g>
	<ellipse class="st0" cx="219.3" cy="180.2" rx="14.5" ry="13.6"/>
	<path class="st0" d="M233.9,180.2v-57l0,0c17.7,0,32,13.4,32,29.9l0,0"/>
</g>
<g>
	<ellipse class="st0" cx="30.6" cy="180.2" rx="14.5" ry="13.6"/>
	<path class="st0" d="M45.2,180.2v-57l0,0c17.7,0,32,13.4,32,29.9l0,0"/>
</g>
<g>
	<ellipse class="st0" cx="1147.6" cy="382.5" rx="11.6" ry="10.9"/>
	<ellipse class="st0" cx="1200" cy="368.9" rx="11.6" ry="10.9"/>
	<path class="st0" d="M1211.6,368.9v-42.6c0-1.5-1.3-2.7-2.9-2.7c-0.2,0-0.5,0-0.7,0.1l-46.5,12.1c-1.3,0.3-2.1,1.4-2.2,2.6v44.1"/>
	<line class="st0" x1="1159.2" y1="352.6" x2="1211.6" y2="339.1"/>
</g>
<g>
	<ellipse class="st0" cx="961" cy="382.5" rx="11.6" ry="10.9"/>
	<ellipse class="st0" cx="1013.3" cy="368.9" rx="11.6" ry="10.9"/>
	<path class="st0" d="M1024.9,368.9v-42.6c0-1.5-1.3-2.7-2.9-2.7c-0.2,0-0.5,0-0.7,0.1l-46.5,12.1c-1.3,0.3-2.1,1.4-2.2,2.6v44.1"/>
	<line class="st0" x1="972.6" y1="352.6" x2="1024.9" y2="339.1"/>
</g>
<g>
	<ellipse class="st0" cx="774.3" cy="382.5" rx="11.6" ry="10.9"/>
	<ellipse class="st0" cx="826.7" cy="368.9" rx="11.6" ry="10.9"/>
	<path class="st0" d="M838.3,368.9v-42.6c0-1.5-1.3-2.7-2.9-2.7c-0.2,0-0.5,0-0.7,0.1l-46.5,12.1c-1.3,0.3-2.1,1.4-2.2,2.6v44.1"/>
	<line class="st0" x1="785.9" y1="352.6" x2="838.3" y2="339.1"/>
</g>
<g>
	<ellipse class="st0" cx="587.7" cy="382.5" rx="11.6" ry="10.9"/>
	<ellipse class="st0" cx="640" cy="368.9" rx="11.6" ry="10.9"/>
	<path class="st0" d="M651.6,368.9v-42.6c0-1.5-1.3-2.7-2.9-2.7c-0.2,0-0.5,0-0.7,0.1l-46.5,12.1c-1.3,0.3-2.1,1.4-2.2,2.6v44.1"/>
	<line class="st0" x1="599.3" y1="352.6" x2="651.6" y2="339.1"/>
</g>
<g>
	<ellipse class="st0" cx="401" cy="382.5" rx="11.6" ry="10.9"/>
	<ellipse class="st0" cx="453.4" cy="368.9" rx="11.6" ry="10.9"/>
	<path class="st0" d="M465,368.9v-42.6c0-1.5-1.3-2.7-2.9-2.7c-0.2,0-0.5,0-0.7,0.1l-46.5,12.1c-1.3,0.3-2.1,1.4-2.2,2.6v44.1"/>
	<line class="st0" x1="412.6" y1="352.6" x2="465" y2="339.1"/>
</g>
<g>
	<ellipse class="st0" cx="214.4" cy="382.5" rx="11.6" ry="10.9"/>
	<ellipse class="st0" cx="266.7" cy="368.9" rx="11.6" ry="10.9"/>
	<path class="st0" d="M278.3,368.9v-42.6c0-1.5-1.3-2.7-2.9-2.7c-0.2,0-0.5,0-0.7,0.1l-46.5,12.1c-1.3,0.3-2.1,1.4-2.2,2.6v44.1"/>
	<line class="st0" x1="226" y1="352.6" x2="278.3" y2="339.1"/>
</g>
<g>
	<ellipse class="st0" cx="27.7" cy="382.5" rx="11.6" ry="10.9"/>
	<ellipse class="st0" cx="80.1" cy="368.9" rx="11.6" ry="10.9"/>
	<path class="st0" d="M91.7,368.9v-42.6c0-1.5-1.3-2.7-2.9-2.7c-0.2,0-0.5,0-0.7,0.1l-46.5,12.1c-1.3,0.3-2.1,1.4-2.2,2.6v44.1"/>
	<line class="st0" x1="39.3" y1="352.6" x2="91.7" y2="339.1"/>
</g>
<g>
	<line class="st0" x1="1159.7" y1="429.8" x2="1159.7" y2="413.5"/>
	<line class="st0" x1="1177.2" y1="429.8" x2="1177.2" y2="413.5"/>
	<line class="st0" x1="1194.6" y1="429.8" x2="1194.6" y2="413.5"/>
	<path class="st0" d="M1145.2,421.6h64c3.2,0,5.8,2.4,5.8,5.4v51.6c0,3-2.6,5.4-5.8,5.4h-64c-3.2,0-5.8-2.4-5.8-5.4v-51.6
		C1139.4,424.1,1142,421.6,1145.2,421.6z"/>
	<line class="st0" x1="1156.8" y1="448.8" x2="1197.5" y2="448.8"/>
	<line class="st0" x1="1156.8" y1="465.1" x2="1180.1" y2="465.1"/>
</g>
<g>
	<line class="st0" x1="973.1" y1="429.8" x2="973.1" y2="413.5"/>
	<line class="st0" x1="990.5" y1="429.8" x2="990.5" y2="413.5"/>
	<line class="st0" x1="1008" y1="429.8" x2="1008" y2="413.5"/>
	<path class="st0" d="M958.6,421.6h64c3.2,0,5.8,2.4,5.8,5.4v51.6c0,3-2.6,5.4-5.8,5.4h-64c-3.2,0-5.8-2.4-5.8-5.4v-51.6
		C952.7,424.1,955.3,421.6,958.6,421.6z"/>
	<line class="st0" x1="970.2" y1="448.8" x2="1010.9" y2="448.8"/>
	<line class="st0" x1="970.2" y1="465.1" x2="993.5" y2="465.1"/>
</g>
<g>
	<line class="st0" x1="786.4" y1="429.8" x2="786.4" y2="413.5"/>
	<line class="st0" x1="803.9" y1="429.8" x2="803.9" y2="413.5"/>
	<line class="st0" x1="821.3" y1="429.8" x2="821.3" y2="413.5"/>
	<path class="st0" d="M771.9,421.6h64c3.2,0,5.8,2.4,5.8,5.4v51.6c0,3-2.6,5.4-5.8,5.4h-64c-3.2,0-5.8-2.4-5.8-5.4v-51.6
		C766.1,424.1,768.7,421.6,771.9,421.6z"/>
	<line class="st0" x1="783.5" y1="448.8" x2="824.3" y2="448.8"/>
	<line class="st0" x1="783.5" y1="465.1" x2="806.8" y2="465.1"/>
</g>
<g>
	<line class="st0" x1="599.8" y1="429.8" x2="599.8" y2="413.5"/>
	<line class="st0" x1="617.2" y1="429.8" x2="617.2" y2="413.5"/>
	<line class="st0" x1="634.7" y1="429.8" x2="634.7" y2="413.5"/>
	<path class="st0" d="M585.3,421.6h64c3.2,0,5.8,2.4,5.8,5.4v51.6c0,3-2.6,5.4-5.8,5.4h-64c-3.2,0-5.8-2.4-5.8-5.4v-51.6
		C579.4,424.1,582,421.6,585.3,421.6z"/>
	<line class="st0" x1="596.9" y1="448.8" x2="637.6" y2="448.8"/>
	<line class="st0" x1="596.9" y1="465.1" x2="620.2" y2="465.1"/>
</g>
<g>
	<line class="st0" x1="413.1" y1="429.8" x2="413.1" y2="413.5"/>
	<line class="st0" x1="430.6" y1="429.8" x2="430.6" y2="413.5"/>
	<line class="st0" x1="448" y1="429.8" x2="448" y2="413.5"/>
	<path class="st0" d="M398.6,421.6h64c3.2,0,5.8,2.4,5.8,5.4v51.6c0,3-2.6,5.4-5.8,5.4h-64c-3.2,0-5.8-2.4-5.8-5.4v-51.6
		C392.8,424.1,395.4,421.6,398.6,421.6z"/>
	<line class="st0" x1="410.2" y1="448.8" x2="451" y2="448.8"/>
	<line class="st0" x1="410.2" y1="465.1" x2="433.5" y2="465.1"/>
</g>
<g>
	<line class="st0" x1="226.5" y1="429.8" x2="226.5" y2="413.5"/>
	<line class="st0" x1="243.9" y1="429.8" x2="243.9" y2="413.5"/>
	<line class="st0" x1="261.4" y1="429.8" x2="261.4" y2="413.5"/>
	<path class="st0" d="M212,421.6h64c3.2,0,5.8,2.4,5.8,5.4v51.6c0,3-2.6,5.4-5.8,5.4h-64c-3.2,0-5.8-2.4-5.8-5.4v-51.6
		C206.1,424.1,208.7,421.6,212,421.6z"/>
	<line class="st0" x1="223.6" y1="448.8" x2="264.3" y2="448.8"/>
	<line class="st0" x1="223.6" y1="465.1" x2="246.9" y2="465.1"/>
</g>
<g>
	<line class="st0" x1="39.8" y1="429.8" x2="39.8" y2="413.5"/>
	<line class="st0" x1="57.3" y1="429.8" x2="57.3" y2="413.5"/>
	<line class="st0" x1="74.8" y1="429.8" x2="74.8" y2="413.5"/>
	<path class="st0" d="M25.3,421.6h64c3.2,0,5.8,2.4,5.8,5.4v51.6c0,3-2.6,5.4-5.8,5.4h-64c-3.2,0-5.8-2.4-5.8-5.4v-51.6
		C19.5,424.1,22.1,421.6,25.3,421.6z"/>
	<line class="st0" x1="36.9" y1="448.8" x2="77.7" y2="448.8"/>
	<line class="st0" x1="36.9" y1="465.1" x2="60.2" y2="465.1"/>
</g>
<g>
	<path class="st0" d="M1183,683.9h-37.8c-3.2,0-5.8-2.4-5.8-5.4v-59.7c0-3,2.6-5.4,5.8-5.4h43.6"/>
	<path class="st0" d="M1197.5,629.7l8.7-16.3l8.7,16.3v46.1c0,4.5-3.9,8.1-8.7,8.1s-8.7-3.6-8.7-8.1V629.7z"/>
	<line class="st0" x1="1197.5" y1="662.2" x2="1215" y2="662.2"/>
	<line class="st0" x1="1156.8" y1="613.4" x2="1156.8" y2="683.9"/>
	<line class="st0" x1="1171.4" y1="632.4" x2="1183" y2="632.4"/>
</g>
<g>
	<path class="st0" d="M996.4,683.9h-37.8c-3.2,0-5.8-2.4-5.8-5.4v-59.7c0-3,2.6-5.4,5.8-5.4h43.6"/>
	<path class="st0" d="M1010.9,629.7l8.7-16.3l8.7,16.3v46.1c0,4.5-3.9,8.1-8.7,8.1s-8.7-3.6-8.7-8.1V629.7z"/>
	<line class="st0" x1="1010.9" y1="662.2" x2="1028.4" y2="662.2"/>
	<line class="st0" x1="970.2" y1="613.4" x2="970.2" y2="683.9"/>
	<line class="st0" x1="984.7" y1="632.4" x2="996.4" y2="632.4"/>
</g>
<g>
	<path class="st0" d="M809.7,683.9h-37.8c-3.2,0-5.8-2.4-5.8-5.4v-59.7c0-3,2.6-5.4,5.8-5.4h43.6"/>
	<path class="st0" d="M824.3,629.7l8.7-16.3l8.7,16.3v46.1c0,4.5-3.9,8.1-8.7,8.1c-4.8,0-8.7-3.6-8.7-8.1V629.7z"/>
	<line class="st0" x1="824.3" y1="662.2" x2="841.7" y2="662.2"/>
	<line class="st0" x1="783.5" y1="613.4" x2="783.5" y2="683.9"/>
	<line class="st0" x1="798.1" y1="632.4" x2="809.7" y2="632.4"/>
</g>
<g>
	<path class="st0" d="M623.1,683.9h-37.8c-3.2,0-5.8-2.4-5.8-5.4v-59.7c0-3,2.6-5.4,5.8-5.4h43.6"/>
	<path class="st0" d="M637.6,629.7l8.7-16.3l8.7,16.3v46.1c0,4.5-3.9,8.1-8.7,8.1c-4.8,0-8.7-3.6-8.7-8.1V629.7z"/>
	<line class="st0" x1="637.6" y1="662.2" x2="655.1" y2="662.2"/>
	<line class="st0" x1="596.9" y1="613.4" x2="596.9" y2="683.9"/>
	<line class="st0" x1="611.4" y1="632.4" x2="623.1" y2="632.4"/>
</g>
<g>
	<path class="st0" d="M436.4,683.9h-37.8c-3.2,0-5.8-2.4-5.8-5.4v-59.7c0-3,2.6-5.4,5.8-5.4h43.6"/>
	<path class="st0" d="M451,629.7l8.7-16.3l8.7,16.3v46.1c0,4.5-3.9,8.1-8.7,8.1c-4.8,0-8.7-3.6-8.7-8.1V629.7z"/>
	<line class="st0" x1="451" y1="662.2" x2="468.4" y2="662.2"/>
	<line class="st0" x1="410.2" y1="613.4" x2="410.2" y2="683.9"/>
	<line class="st0" x1="424.8" y1="632.4" x2="436.4" y2="632.4"/>
</g>
<g>
	<path class="st0" d="M249.8,683.9H212c-3.2,0-5.8-2.4-5.8-5.4v-59.7c0-3,2.6-5.4,5.8-5.4h43.6"/>
	<path class="st0" d="M264.3,629.7l8.7-16.3l8.7,16.3v46.1c0,4.5-3.9,8.1-8.7,8.1s-8.7-3.6-8.7-8.1V629.7z"/>
	<line class="st0" x1="264.3" y1="662.2" x2="281.8" y2="662.2"/>
	<line class="st0" x1="223.6" y1="613.4" x2="223.6" y2="683.9"/>
	<line class="st0" x1="238.1" y1="632.4" x2="249.8" y2="632.4"/>
</g>
<g>
	<path class="st0" d="M63.1,683.9H25.3c-3.2,0-5.8-2.4-5.8-5.4v-59.7c0-3,2.6-5.4,5.8-5.4h43.6"/>
	<path class="st0" d="M77.7,629.7l8.7-16.3l8.7,16.3v46.1c0,4.5-3.9,8.1-8.7,8.1c-4.8,0-8.7-3.6-8.7-8.1V629.7z"/>
	<line class="st0" x1="77.7" y1="662.2" x2="95.1" y2="662.2"/>
	<line class="st0" x1="36.9" y1="613.4" x2="36.9" y2="683.9"/>
	<line class="st0" x1="51.5" y1="632.4" x2="63.1" y2="632.4"/>
</g>
<g>
	<ellipse class="st0" cx="1166.4" cy="570.4" rx="14.5" ry="13.6"/>
	<path class="st0" d="M1180.9,570.4v-57l0,0c17.7,0,32,13.4,32,29.9l0,0"/>
</g>
<g>
	<ellipse class="st0" cx="977.7" cy="570.4" rx="14.5" ry="13.6"/>
	<path class="st0" d="M992.2,570.4v-57l0,0c17.7,0,32,13.4,32,29.9l0,0"/>
</g>
<g>
	<ellipse class="st0" cx="788.9" cy="570.4" rx="14.5" ry="13.6"/>
	<path class="st0" d="M803.5,570.4v-57l0,0c17.7,0,32,13.4,32,29.9l0,0"/>
</g>
<g>
	<ellipse class="st0" cx="600.2" cy="570.4" rx="14.5" ry="13.6"/>
	<path class="st0" d="M614.8,570.4v-57l0,0c17.7,0,32,13.4,32,29.9l0,0"/>
</g>
<g>
	<ellipse class="st0" cx="411.5" cy="570.4" rx="14.5" ry="13.6"/>
	<path class="st0" d="M426,570.4v-57l0,0c17.7,0,32,13.4,32,29.9l0,0"/>
</g>
<g>
	<ellipse class="st0" cx="222.8" cy="570.4" rx="14.5" ry="13.6"/>
	<path class="st0" d="M237.3,570.4v-57l0,0c17.7,0,32,13.4,32,29.9l0,0"/>
</g>
<g>
	<ellipse class="st0" cx="34" cy="570.4" rx="14.5" ry="13.6"/>
	<path class="st0" d="M48.6,570.4v-57l0,0c17.7,0,32,13.4,32,29.9l0,0"/>
</g>
</svg>
